<svg xmlns="http://www.w3.org/2000/svg" xml:space="preserve" width="2000" height="104" data-id="lg_84DpNiW6koWGL1Y1HJ" data-version="1" viewBox="0 0 2000 104"><g data-padding="20"><g transform="translate(10 1.854)scale(.96435)"><rect width="503.059" height="110.487" x="542.222" y="-55.563" fill="none" rx="0" ry="0" transform="matrix(.94 0 0 .94 324.47 52.3)"/><path fill="#5771ff" d="M850.357 80.35h-15.04l22.11-66.97h24.31l22.93 66.97h-15.59l-18.53-56.6 4.77 1.92h-11.84l4.96-1.92Zm37.25-16.6h-35.5l4.58-12.48h26.24Zm40.38 16.6h-14.77V13.38h14.77Zm0-56.14h-20.74V13.38h20.74Zm28.89 56.14h-14.77V13.38h14.77Zm0-56.14h-20.73V13.38h20.73Zm36.51 57.87q-6.42 0-11.32-2.2-4.91-2.2-8.17-5.92-3.26-3.71-4.95-8.34-1.7-4.64-1.7-9.5v-1.83q0-5.05 1.7-9.68 1.69-4.63 4.9-8.3 3.22-3.67 8.03-5.83 4.82-2.15 10.96-2.15 8.08 0 13.63 3.62t8.48 9.45q2.94 5.82 2.94 12.7v4.96h-44.49v-8.35h35.59l-4.77 3.85q0-4.49-1.28-7.7-1.29-3.21-3.81-4.91t-6.29-1.7q-3.85 0-6.51 1.74-2.66 1.75-4.04 5.1-1.37 3.34-1.37 8.21 0 4.49 1.28 7.84 1.29 3.35 4.04 5.18 2.75 1.84 7.15 1.84 4.04 0 6.61-1.56t3.49-3.85h13.48q-1.1 5.04-4.31 8.99-3.21 3.94-8.07 6.14-4.87 2.2-11.2 2.2m48.89-1.74h-14.68V30.07h11.65v21.56h-.27q0-10.64 4.54-16.42t13.16-5.78h1.93v12.66h-3.67q-6.05 0-9.36 3.25-3.3 3.26-3.3 9.41Zm43.77 20.01q-3.67 0-7.52-.28-3.86-.27-7.07-.73V86.96q3.21.45 7.11.78 3.9.32 7.11.32 5.97 0 9.68-1.38 3.72-1.38 5.46-4.17 1.74-2.8 1.74-7.2v-10l2.66-5.88q-.18 6.7-2.61 11.47t-6.74 7.29q-4.32 2.53-10.28 2.53-5.14 0-9.31-1.88t-7.11-5.28q-2.94-3.39-4.49-7.93-1.56-4.54-1.56-9.87v-2.11q0-5.32 1.65-9.9 1.65-4.59 4.77-7.98 3.12-3.4 7.43-5.28t9.54-1.88q6.05 0 10.5 2.66t7.02 7.8 2.75 12.38l-2.02.55V30.08h11.66v44.31q0 9.26-3.31 14.95-3.3 5.69-10.04 8.35-6.75 2.66-17.02 2.66m4.13-32.02q3.39 0 6.14-1.51 2.76-1.51 4.36-4.36 1.61-2.84 1.61-6.88v-2.66q0-3.94-1.7-6.65t-4.45-4.13-5.87-1.42q-3.67 0-6.51 1.74-2.85 1.75-4.41 4.86-1.56 3.12-1.56 7.34 0 4.32 1.61 7.39 1.6 3.07 4.4 4.68 2.8 1.6 6.38 1.6m47.43 31.93h-8.99V87.78h10.45q2.39 0 4.04-.59 1.65-.6 2.66-1.98 1.01-1.37 1.65-3.76l12.39-51.37h13.94l-14.03 54.31q-1.47 5.87-4.09 9.35-2.61 3.49-6.97 5-4.36 1.52-11.05 1.52m17.43-21.01h-10.64V67.78h10.64Zm-2.75 0h-13.95l-15.41-49.17h14.77Zm45.22 1.1h-15.04V13.38h15.04Zm69.81 19.99h-9.35q-6.24 0-10.78-1.47t-7.07-5.32q-2.52-3.85-2.52-11.01V72.27h14.04v10.91q0 2.66 1.51 4.09 1.51 1.42 4.18 1.42h9.99Zm-22.47-18.26q-9.08 0-15.83-3.16-6.74-3.17-11.14-8.35-4.41-5.18-6.56-11.24-2.16-6.05-2.16-11.65v-2.02q0-6.23 2.25-12.34 2.25-6.1 6.74-11.05 4.5-4.95 11.2-7.93 6.69-2.99 15.5-2.99t15.5 2.99q6.7 2.98 11.19 7.93 4.5 4.95 6.79 11.05 2.3 6.11 2.3 12.34v2.02q0 5.6-2.2 11.65-2.21 6.06-6.61 11.24t-11.15 8.35q-6.74 3.16-15.82 3.16m0-14.03q4.77 0 8.58-1.65 3.8-1.65 6.51-4.59t4.08-6.79q1.38-3.85 1.38-8.26 0-4.67-1.42-8.57-1.43-3.9-4.13-6.79-2.71-2.89-6.47-4.45t-8.53-1.56-8.53 1.56-6.47 4.45-4.08 6.79q-1.38 3.9-1.38 8.57 0 4.41 1.38 8.26 1.37 3.85 4.08 6.79t6.47 4.59 8.53 1.65M767.093 41.035c-2.093-3.887-2.99-8.372-2.99-12.857v-2.093h1.495c.598 0 1.495-.598 1.495-1.495V21.6c0-.897-.897-1.495-1.495-1.495h-14.95c-.897 0-1.495.598-1.495 1.495v2.99c0 .897.598 1.495 1.495 1.495h1.495v2.392c0 4.186-1.196 8.671-2.99 12.558s-2.99 8.372-2.99 12.558v23.322c0 1.794 1.495 2.99 2.99 2.99h17.94c1.495 0 2.99-1.196 2.99-2.99V53.593c0-4.186-1.196-8.67-2.99-12.558m30.767 11.96c-1.495 0-2.69.3-3.887.897-.299-.598-1.495-3.289 2.99-7.774 1.196-1.196 1.196-2.99 0-4.186s-2.99-1.196-4.186 0c-4.485 4.485-5.382 8.671-5.083 11.661-.897-.299-2.093-.598-3.289-.598-5.382-.299-8.97 5.382-8.073 12.857s6.28 13.754 11.661 14.352c1.196 0 2.392-.299 3.29-.598.896.598 2.092.598 3.288.598 5.382-.299 10.764-6.877 11.661-14.352.598-7.774-2.99-13.455-8.372-12.857"/></g><path fill="transparent" stroke="transparent" d="M719.5 0h561v104h-561z"/></g></svg>